<?xml version="1.0" standalone="no"?> <!DOCTYPE svg PUBLIC "-//W3C//DTD SVG 1.0//EN" "http://www.w3.org/TR/2001/REC-SVG-20010904/DTD/svg10.dtd" > <svg xmlns="http://www.w3.org/2000/svg" width="100%" height="100%">
<defs >
<font id="akzidenzgroteskbe-cn" horiz-adv-x="306" ><font-face
    font-family="Akzidenz Grotesk BE Cn"
    units-per-em="1000"
    panose-1="2 11 5 6 0 0 0 0 0 0"
    ascent="706"
    descent="-159"
    alphabetic="0" />
<missing-glyph horiz-adv-x="229" />
<glyph unicode=" " glyph-name="space" horiz-adv-x="229" />
<glyph unicode="!" glyph-name="exclam" horiz-adv-x="208" d="M167 118V0H82V118H167ZM167 484L146 192H101L82 484V707H167V484Z" />
<glyph unicode="&quot;" glyph-name="quotedbl" horiz-adv-x="396" d="M343 690L302 434H279L241 678Q239 690 239 695Q239 723 256 736T294 749Q317 749 332 734T343 690ZM156 690L115 434H92L54 678Q52 690 52 695Q52 723 69 736T107 749Q130 749 145 734T156 690Z" />
<glyph unicode="#" glyph-name="numbersign" horiz-adv-x="583" d="M559 307V230H409L376 0H296L329 230H218L186 0H105L138 230H0V307H149L165 414H24V491H175L206 706H286L256 491H366L397 706H475L446 491H584V414H435L419 307H559ZM229 307H340L355 414H244L229 307Z" />
<glyph unicode="$" glyph-name="dollar" horiz-adv-x="396" d="M229 -9V-94H172V-9Q82 1 46 69Q34 92 32 122T29 244H111Q111 148 113 134Q117 110 129 95T149 76T172 67V328L130 372Q83 421 65 456T47 550Q47 634 79 669T172 715V799H229V715Q303 707 329 669T356
551V497H276Q276 572 269 599T229 636V398L276 347Q331 287 350 249T370 157Q370 12 229 -9ZM229 265V67Q285 86 285 158Q285 209 229 265ZM172 457V636Q130 616 130 556Q130 532 136 512T150 482T172 457Z" />
<glyph unicode="%" glyph-name="percent" horiz-adv-x="625" d="M509 707L165 0H116L463 707H509ZM229 486Q229 377 226 347Q217 260 127 260Q94 260 72 269T41 296T29 323T24 348Q22 369 22 577Q22 597 22 609T28 644T44 678T75 701T125 712Q212 712 226 627Q229
608 229 486ZM161 484V572Q161 597 161 607T157 630T146 646T125 650Q109 650 101 641T91 623T89 597Q88 562 88 439Q88 358 93 340T124 321Q139 321 147 327T157 338T159 354Q161 375 161 484ZM604 222Q604 112 601 82Q592 -5 502 -5Q469 -5 447 4T416 31T404
58T399 83Q397 104 397 312Q397 332 397 344T403 379T419 413T450 436T500 447Q587 447 601 362Q604 343 604 222ZM536 219V307Q536 332 536 342T532 365T521 381T500 385Q484 385 476 376T466 358T464 332Q463 297 463 174Q463 94 468 75T499 56Q514 56 522 62T532
73T534 89Q536 110 536 219Z" />
<glyph unicode="&amp;" glyph-name="ampersand" horiz-adv-x="458" d="M338 307L415 306Q418 196 363 105Q372 94 377 88T399 76T437 71V-4Q358 -9 314 43Q258 -10 181 -10Q110 -10 66 35T21 154Q21 242 82 311L126 355Q80 457 80 503Q80 547 110 584T201 622Q253
622 288 592T324 507Q324 428 224 337Q246 293 314 179Q337 221 338 307ZM265 103Q234 144 163 280Q107 237 106 146Q105 105 129 83T184 61Q228 61 265 103ZM191 408Q217 435 226 447T243 474T251 507Q251 531 237 543T204 556Q158 556 158 503Q158 465 191 408Z"
/>
<glyph unicode="&apos;" glyph-name="quotesingle" horiz-adv-x="208" d="M156 690L115 434H92L54 678Q52 690 52 695Q52 723 69 736T107 749Q130 749 145 734T156 690Z" />
<glyph unicode="(" glyph-name="parenleft" horiz-adv-x="292" d="M235 718L278 680Q218 590 188 504T158 277Q158 28 283 -134L242 -171Q226 -153 203 -118T146 -22T91 118T69 278Q69 503 235 718Z" />
<glyph unicode=")" glyph-name="parenright" horiz-adv-x="292" d="M49 -171L8 -134Q133 28 133 277Q133 418 103 504T13 680L56 718Q222 503 222 278Q222 199 200 119T145 -22T89 -117T49 -171Z" />
<glyph unicode="*" glyph-name="asterisk" horiz-adv-x="354" d="M248 391L180 486L109 391L56 431L127 526L12 562L33 628L146 589V706H212V589L324 623L343 562L233 526L302 431L248 391Z" />
<glyph unicode="+" glyph-name="plus" horiz-adv-x="500" d="M468 331V251H289V72H209V251H31V331H209V510H289V331H468Z" />
<glyph unicode="," glyph-name="comma" horiz-adv-x="167" d="M40 118H126V5Q126 -17 125 -31T120 -64T107 -96T81 -120T40 -137V-85Q66 -77 72 -58T78 0H40V118Z" />
<glyph unicode="-" glyph-name="hyphen" horiz-adv-x="271" d="M250 309V231H20V309H250Z" />
<glyph unicode="." glyph-name="period" horiz-adv-x="167" d="M126 118V0H41V118H126Z" />
<glyph unicode="/" glyph-name="slash" horiz-adv-x="292" d="M287 706L89 0H5L206 706H287Z" />
<glyph unicode="0" glyph-name="zero" horiz-adv-x="375" d="M347 354Q347 181 342 126Q340 110 338 99T326 66T302 29T258 3T190 -9Q65 -9 40 84Q28 128 28 355Q28 512 30 555T43 627Q53 656 73 675T116 702T156 712T187 715Q295 715 330 629Q342 600 344 560T347
354ZM258 350V468Q258 505 258 521T255 562T249 596T238 617T218 632T188 636Q164 636 148 627T126 601T119 571T116 537Q115 483 115 315Q115 199 116 169Q116 145 118 132T126 102T147 77T186 69T225 76T246 101T255 132T257 173Q258 193 258 350Z" />
<glyph unicode="1" glyph-name="one" horiz-adv-x="375" d="M243 706V0H154V554H37V621Q61 621 74 621T107 626T139 639T159 665T168 706H243Z" />
<glyph unicode="2" glyph-name="two" horiz-adv-x="375" d="M343 76V0H34V84L180 331Q226 410 238 446T251 538Q251 634 186 634Q164 634 150 625T131 598T124 568T123 535V454H42V542Q42 636 78 674Q117 715 184 715Q250 715 289 674Q334 626 334 531Q334 469
318 422T268 319L123 76H343Z" />
<glyph unicode="3" glyph-name="three" horiz-adv-x="375" d="M123 506H43Q41 617 63 656Q96 715 187 715Q265 715 301 664Q332 624 332 530Q332 454 317 420T250 376Q309 362 326 324T343 169Q343 79 299 34Q256 -9 185 -9Q127 -9 84 18Q56 36 43 71T30 141T31
211H111Q110 184 111 145Q114 68 180 68Q213 68 230 85T251 120T254 162Q255 175 255 233Q255 289 233 311T164 333Q145 333 137 332V411Q160 408 180 411T215 422T239 453T248 512Q248 583 237 610T184 638T132 605T123 506Z" />
<glyph unicode="4" glyph-name="four" horiz-adv-x="375" d="M287 158V0H204V158H21V255L164 707H287V233H349V158H287ZM87 233H204L208 627L87 233Z" />
<glyph unicode="5" glyph-name="five" horiz-adv-x="375" d="M60 706H334V629H140L134 454Q165 485 220 485Q286 485 319 433Q341 397 341 295Q341 155 338 125Q331 64 290 28T180 -9Q28 -9 28 167Q28 175 28 188T29 207H112Q110 178 112 154T119 110T140 81T183
70Q211 70 227 84T247 110T252 134Q255 163 255 290Q255 318 254 332T247 367T227 397T188 407Q171 407 159 401T142 387T133 366T129 346T128 324H49L60 706Z" />
<glyph unicode="6" glyph-name="six" horiz-adv-x="375" d="M34 226V481Q34 578 40 605Q61 715 184 715Q264 715 303 668Q323 644 328 617T333 538H251Q251 566 250 579T243 608T224 630T186 637Q132 637 120 588Q115 567 115 464V411Q157 461 214 461Q270 461
305 423Q328 399 335 364T342 241Q342 92 320 54Q282 -9 183 -9Q58 -9 39 101Q34 131 34 226ZM256 223Q256 293 254 321Q250 388 185 388Q168 388 156 384T137 368T125 346T119 313T117 273T116 222Q116 146 119 124Q121 114 123 109T132 92T153 74T188 68Q205
68 216 71T235 86T247 106T253 138T255 175T256 223Z" />
<glyph unicode="7" glyph-name="seven" horiz-adv-x="375" d="M340 706V641Q340 637 336 630T330 620Q313 584 293 533Q257 436 237 331T212 162T205 0H109Q119 256 191 464Q198 483 253 627H33V706H340Z" />
<glyph unicode="8" glyph-name="eight" horiz-adv-x="375" d="M338 550Q338 466 328 430T281 380Q277 379 270 378T262 376Q263 376 267 375T275 372T284 369Q301 361 312 348T330 323T339 288T342 252T343 212Q343 111 327 71Q316 44 294 26T246 1T207 -7T184
-9Q102 -9 62 41Q31 80 31 154Q31 194 31 212T33 257T37 296T46 324T61 348T82 363T113 376Q67 384 54 418T40 544Q40 566 41 581T50 624T72 669T117 701T189 715Q272 715 312 665Q338 630 338 550ZM255 535Q255 550 255 565T253 594T243 620T223 638T190 645Q147
645 134 617T121 530Q121 504 121 492T125 461T136 434T157 420T191 413Q209 413 221 419T239 433T249 460T253 492T255 535ZM257 198Q257 226 257 239T253 273T242 303T221 320T187 328Q161 328 143 315Q126 301 122 279T118 194Q118 166 118 153T122 120T133
92T153 77T187 70Q212 70 227 79T248 109T255 147T257 198Z" />
<glyph unicode="9" glyph-name="nine" horiz-adv-x="375" d="M37 186H118Q117 136 118 132Q118 69 184 69Q203 69 216 75T236 90T247 117T251 149T253 190V304Q209 260 151 260Q30 260 30 423Q30 573 39 614Q50 668 90 691T184 715Q233 715 263 700Q323 670 334
596Q337 579 337 402Q337 174 334 127Q322 -9 183 -9Q129 -9 90 16T41 87Q37 104 37 186ZM254 483Q254 564 253 572Q249 606 231 622T187 638Q163 638 142 623T117 571Q114 546 114 454L115 402Q117 371 135 354T186 336T236 356T254 413V483Z" />
<glyph unicode=":" glyph-name="colon" horiz-adv-x="208" d="M168 477V359H83V477H168ZM168 118V0H83V118H168Z" />
<glyph unicode=";" glyph-name="semicolon" horiz-adv-x="208" d="M82 118H167V5Q167 -24 165 -41T156 -80T130 -117T82 -137V-86Q96 -82 104 -74T115 -53T119 -30T120 0H82V118ZM167 477V359H82V477H167Z" />
<glyph unicode="&lt;" glyph-name="less" horiz-adv-x="500" d="M500 155V68L0 310V396L500 638V551L99 353L500 155Z" />
<glyph unicode="=" glyph-name="equal" horiz-adv-x="500" d="M500 238V160H0V238H500ZM500 419V341H0V419H500Z" />
<glyph unicode="&gt;" glyph-name="greater" horiz-adv-x="500" d="M500 310L0 68V155L401 353L0 551V638L500 396V310Z" />
<glyph unicode="?" glyph-name="question" horiz-adv-x="396" d="M265 118V0H180V118H265ZM57 466V566Q57 651 101 684Q142 717 206 717Q286 717 330 664Q360 626 360 551Q360 496 355 470T337 420Q336 418 286 337Q263 298 259 277T255 189H189Q189 278 193 297Q198
325 245 414Q266 454 270 476T275 568Q275 600 255 618T203 637Q184 637 171 631T150 618T140 597T136 576T135 556V466H57Z" />
<glyph unicode="@" glyph-name="at" horiz-adv-x="896" d="M787 76L820 36Q653 -124 454 -124Q405 -124 355 -114T253 -77T160 -11T95 92T69 235Q69 327 103 414T198 566T345 672T530 712Q664 712 745 634T827 423Q827 335 794 253T708 121T597 70Q570 70 552
79T527 104T517 130T513 155Q451 71 369 71Q361 71 352 72T320 82T281 106T252 156T239 236Q239 344 303 431T451 518Q528 518 565 433L580 495H648L615 345Q587 209 587 170Q587 155 591 148T608 131H618Q665 131 717 221T769 420Q769 535 701 596T521 658Q420
658 329 603T182 448T125 232Q125 171 143 121T193 36T267 -23T356 -58T451 -69Q635 -69 787 76ZM541 348Q541 403 516 428T459 453Q417 453 384 417T334 333T318 238Q318 209 326 188T343 157T366 142T385 136T396 135Q454 135 497 201T541 348Z" />
<glyph unicode="A" glyph-name="A" horiz-adv-x="396" d="M240 706L396 0H304L279 136H115L91 0H0L152 706H240ZM130 212H264L195 575L130 212Z" />
<glyph unicode="B" glyph-name="B" horiz-adv-x="437" d="M50 706H179Q219 706 239 705T284 699T327 683Q391 644 391 540Q391 466 363 424T277 381Q344 381 373 335T402 216Q402 152 393 114T356 47Q325 15 288 8T171 0H50V706ZM138 627V416H198Q224 416 237
418T269 429T296 461T305 523Q305 560 297 582T270 614T236 625T188 627H138ZM186 340H138V76H188Q215 76 228 77T262 83T291 101T307 135T315 192Q315 244 308 274T283 319T245 336T186 340Z" />
<glyph unicode="C" glyph-name="C" horiz-adv-x="417" d="M298 249H380Q380 134 373 102Q369 82 362 67T339 32T291 1T214 -10Q139 -10 100 26T51 119Q44 166 44 345Q44 534 52 584Q55 600 58 610T72 643T100 680T148 705T221 717Q272 717 314 693T369 615Q378
578 376 484H294V537Q294 556 294 567T289 594T278 620T257 636T221 643Q195 643 177 634T152 609T142 582T137 556Q131 505 131 344Q131 172 137 130Q152 64 219 64Q279 64 294 131Q298 149 298 249Z" />
<glyph unicode="D" glyph-name="D" horiz-adv-x="437" d="M181 0H50V706H183Q228 706 251 704T306 690T357 653Q381 623 387 580T393 404Q393 321 391 225Q390 163 385 128T363 64Q344 34 313 19T256 2T181 0ZM138 625V78H195Q244 78 269 90T301 146Q307 186 307
315Q307 405 306 473Q305 540 300 567T273 610Q257 621 235 623T138 625Z" />
<glyph unicode="E" glyph-name="E" horiz-adv-x="396" d="M368 79V0H50V706H360V627H138V417H333V337H138V79H368Z" />
<glyph unicode="F" glyph-name="F" horiz-adv-x="375" d="M139 342V0H50V706H361V627H139V419H332V342H139Z" />
<glyph unicode="G" glyph-name="G" horiz-adv-x="437" d="M395 365V0H321V49Q304 32 293 23T253 2T191 -10Q157 -10 120 8T64 72Q57 90 54 108T47 179T44 327Q44 511 51 569Q54 598 62 621T88 668T140 704T221 717Q326 717 365 661Q382 637 385 609T389 490H306Q306
571 302 590Q291 643 226 643Q196 643 177 634T150 606T140 571T136 527Q132 449 132 288Q132 266 137 154Q140 63 216 63Q259 63 287 91Q301 106 307 130T313 217V289H209V365H395Z" />
<glyph unicode="H" glyph-name="H" horiz-adv-x="437" d="M387 706V0H299V329H138V0H50V706H138V406H299V706H387Z" />
<glyph unicode="I" glyph-name="I" horiz-adv-x="187" d="M137 706V0H50V706H137Z" />
<glyph unicode="J" glyph-name="J" horiz-adv-x="396" d="M262 706H349V231Q349 120 338 87Q306 -10 176 -10Q111 -10 75 19T27 90Q19 119 19 212H104Q104 128 112 107Q129 65 175 65Q255 64 261 145Q262 159 262 226V706Z" />
<glyph unicode="K" glyph-name="K" horiz-adv-x="417" d="M250 440L416 0H319L193 361L137 276V0H50V706H137V402L319 706H416L250 440Z" />
<glyph unicode="L" glyph-name="L" horiz-adv-x="354" d="M346 79V0H50V706H139V79H346Z" />
<glyph unicode="M" glyph-name="M" horiz-adv-x="562" d="M512 707V0H431L443 639L338 0H227L121 639L135 0H50V707H182L281 76L378 707H512Z" />
<glyph unicode="N" glyph-name="N" horiz-adv-x="437" d="M387 707V0H263L125 612L137 0H51V707H171L314 88L302 707H387Z" />
<glyph unicode="O" glyph-name="O" horiz-adv-x="437" d="M393 363Q393 280 387 174Q385 135 378 107T354 50T302 6T214 -10Q156 -10 119 10Q64 40 51 115Q44 157 44 329Q44 497 49 560Q50 577 53 591T67 630T95 672T147 703T226 717Q268 717 299 705T346 677T372
637T384 600T389 569Q393 529 393 363ZM134 314Q134 265 135 220Q135 213 135 191T136 159T139 131T146 103T161 83T184 68T218 63Q239 63 254 71T278 88T291 116T297 145T299 175Q306 272 304 363Q304 391 303 446T302 529Q301 553 300 566T291 601T267 632T221
643T175 632T149 599T139 564T136 530Q134 495 134 314Z" />
<glyph unicode="P" glyph-name="P" horiz-adv-x="417" d="M138 289V0H51V707H195Q261 707 297 697T358 651Q380 621 385 589T390 492Q390 413 372 367T306 302Q282 293 255 291T138 289ZM138 626V367H197Q255 367 277 383Q295 397 299 417T303 485Q303 546 298
572T271 611Q255 622 233 624T138 626Z" />
<glyph unicode="Q" glyph-name="Q" horiz-adv-x="437" d="M402 -61L353 -113L247 -9Q243 -9 236 -9T222 -10Q198 -10 180 -8T136 1T91 28T60 78Q44 122 44 295Q44 511 49 560Q51 578 53 591T67 631T96 673T148 703T228 717Q317 717 358 664Q381 633 388 586T396
435Q396 342 391 210Q390 172 388 150T378 98T356 47T315 12L402 -61ZM134 363Q134 169 137 143Q138 130 140 120T150 95T175 71T219 62Q246 62 263 72T288 102T298 136T302 175Q306 275 306 363Q306 496 305 529Q304 550 303 564T294 599T269 631T224 643Q196
643 178 633T152 603T141 569T136 530Q134 504 134 363Z" />
<glyph unicode="R" glyph-name="R" horiz-adv-x="437" d="M296 319L423 0H330L210 309H137V0H50V706H204Q237 706 260 703T309 689T352 658T380 602T391 514Q391 435 374 391Q355 335 296 319ZM137 626V379Q215 379 235 381T269 392Q303 415 303 504Q303 532 302
548T292 583T268 613Q253 622 232 624T137 626Z" />
<glyph unicode="S" glyph-name="S" horiz-adv-x="396" d="M27 166V244H111Q111 162 112 149Q117 65 197 65Q216 65 233 70T268 96T286 153Q286 191 271 216T221 278L125 376Q77 426 61 463T44 552Q44 717 208 717Q301 717 337 659Q351 636 354 609T357 498H280Q278
574 276 585Q267 642 203 642Q129 642 129 558Q129 521 142 498T198 431L287 338Q335 287 353 252T371 159Q371 116 358 84T327 35T283 7T239 -7T200 -10Q123 -10 82 25Q27 68 27 166Z" />
<glyph unicode="T" glyph-name="T" horiz-adv-x="375" d="M231 627V0H144V627H10V706H365V627H231Z" />
<glyph unicode="U" glyph-name="U" horiz-adv-x="437" d="M301 706H390V230Q390 159 387 128T373 72Q338 -10 219 -10Q99 -10 63 67Q53 90 50 117T47 224V706H136V191Q136 166 136 154T141 122T154 92T179 74T221 66Q248 66 265 74T289 97T297 123T300 152Q301
180 301 238V706Z" />
<glyph unicode="V" glyph-name="V" horiz-adv-x="375" d="M375 706L244 0H132L0 706H91L188 87L286 706H375Z" />
<glyph unicode="W" glyph-name="W" horiz-adv-x="625" d="M625 706L506 0H390L313 585L232 0H116L0 706H87L174 87L257 706H370L451 87L539 706H625Z" />
<glyph unicode="X" glyph-name="X" horiz-adv-x="396" d="M248 385L396 0H301L193 306L92 0H0L135 385L9 706H106L191 435L270 706H364L248 385Z" />
<glyph unicode="Y" glyph-name="Y" horiz-adv-x="396" d="M241 277V0H150V277L0 706H94L198 353L303 706H396L241 277Z" />
<glyph unicode="Z" glyph-name="Z" horiz-adv-x="375" d="M353 78V0H22V72L254 627H55V706H353V639L117 78H353Z" />
<glyph unicode="[" glyph-name="bracketleft" horiz-adv-x="313" d="M294 -106V-171H97V718H294V655H181V-106H294Z" />
<glyph unicode="\" glyph-name="backslash" horiz-adv-x="292" d="M286 0H203L5 706H86L286 0Z" />
<glyph unicode="]" glyph-name="bracketright" horiz-adv-x="313" d="M216 -171H19V-106H132V655H19V718H216V-171Z" />
<glyph unicode="^" glyph-name="asciicircum" horiz-adv-x="729" d="M407 706L587 337H490L366 596L238 337H142L330 706H407Z" />
<glyph unicode="_" glyph-name="underscore" horiz-adv-x="500" d="M510 -75V-125H-10V-75H510Z" />
<glyph unicode="`" glyph-name="grave" horiz-adv-x="229" d="M195 563H130L33 671H142L195 563Z" />
<glyph unicode="a" glyph-name="a" horiz-adv-x="354" d="M309 345V106Q309 48 313 31T333 0H235V60Q200 -9 132 -9Q98 -9 72 6Q20 37 20 119Q20 175 39 202T104 262Q164 302 182 315T230 357Q230 378 229 389T223 415T204 438T169 445Q148 445 135 439T116 420T110
398T109 373Q109 358 111 336H38Q35 404 45 436Q70 509 177 509Q243 509 278 472Q300 450 304 427T309 345ZM230 161V285Q207 263 164 231Q141 213 131 203T111 172T101 124Q101 50 155 50Q178 50 198 65Q230 89 230 161Z" />
<glyph unicode="b" glyph-name="b" horiz-adv-x="375" d="M118 45V0H44V706H123V459Q162 509 221 509Q289 509 318 456Q339 419 339 305Q339 128 330 83Q321 33 289 12T220 -9Q164 -9 118 45ZM123 309V195Q123 136 125 119Q135 53 198 53Q248 53 255 115Q258 146
258 252Q258 315 257 342T250 399T231 440T195 450Q174 450 154 437T127 394Q123 379 123 309Z" />
<glyph unicode="c" glyph-name="c" horiz-adv-x="354" d="M244 186H320Q320 149 319 130T311 79T289 32T246 4T175 -9Q72 -9 48 70Q36 110 36 238Q36 277 36 301T39 355T45 402T56 440T74 470T100 491T136 505T183 509Q223 509 250 498T290 472T311 428T319 378T320
319H244Q244 352 244 366T240 400T231 428T212 442T181 448Q137 448 127 414T117 265Q117 174 118 131Q119 111 121 98T138 70T180 54Q221 54 232 84T244 186Z" />
<glyph unicode="d" glyph-name="d" horiz-adv-x="375" d="M331 706V0H256V53Q220 -9 151 -9Q133 -9 120 -5Q96 1 80 16T56 49T43 102T37 166T36 247Q36 387 48 426Q59 463 87 486T155 509Q214 509 250 460V706H331ZM252 248Q254 293 252 329T245 392T224 432T182
446Q161 446 148 437T128 410T121 379T118 345Q116 291 116 210Q116 162 118 131Q119 121 119 118T122 102T129 84T139 70T157 58T182 54Q202 54 215 62T235 84T245 123T250 174T252 242Q252 246 252 248Z" />
<glyph unicode="e" glyph-name="e" horiz-adv-x="354" d="M244 155H318Q318 96 309 70Q280 -9 177 -9Q80 -9 49 68Q44 83 42 96T38 157T36 303Q36 341 38 366T47 420T69 467T110 496T174 508Q298 508 314 399Q318 374 318 234H117Q117 135 118 126Q125 55 181
55Q220 55 232 81T244 155ZM117 299H243V361Q242 377 241 386T235 413T216 438T181 447Q136 447 123 405Q117 386 117 299Z" />
<glyph unicode="f" glyph-name="f" horiz-adv-x="229" d="M143 440V0H64V440H5V501H64V554Q64 581 65 596T72 636T89 674T124 698T182 709Q202 709 224 703V634Q206 640 192 640Q174 640 164 634T149 614T144 587T143 550V501H224V440H143Z" />
<glyph unicode="g" glyph-name="g" horiz-adv-x="375" d="M257 500H332V26Q332 -58 323 -86Q296 -168 176 -168Q121 -168 81 -139T40 -40H113Q114 -52 115 -59T123 -79T143 -98T181 -105Q201 -105 215 -99T236 -84T246 -60T250 -34T251 -6V52Q213 -3 150 -3Q74
-3 49 63Q39 89 37 123T35 260Q35 379 44 416Q64 509 159 509Q226 509 257 455V500ZM253 243Q253 328 250 370Q247 452 182 452Q166 452 155 447T136 430T125 407T119 375T117 340T116 301Q116 162 119 127Q123 58 180 58T249 119Q253 142 253 243Z" />
<glyph unicode="h" glyph-name="h" horiz-adv-x="375" d="M331 344V0H252V300Q252 331 252 345T250 380T244 410T234 429T216 442T190 446Q174 446 162 442T143 426T132 404T126 373T124 339T123 300V0H44V706H123V455Q136 471 143 479T173 498T223 509Q275 509
304 473Q331 440 331 344Z" />
<glyph unicode="i" glyph-name="i" horiz-adv-x="167" d="M123 501V0H44V501H123ZM123 691V588H44V691H123Z" />
<glyph unicode="j" glyph-name="j" horiz-adv-x="167" d="M44 501H123V35Q123 -66 118 -89Q108 -133 77 -150T-11 -168Q-24 -168 -46 -166V-101H-30Q-8 -101 1 -101T21 -95T35 -85T41 -61T44 -26T44 29V501ZM123 691V588H44V691H123Z" />
<glyph unicode="k" glyph-name="k" horiz-adv-x="354" d="M227 306L356 0H271L173 232L123 162V0H43V706H123V272L271 500H363L227 306Z" />
<glyph unicode="l" glyph-name="l" horiz-adv-x="167" d="M124 706V0H43V706H124Z" />
<glyph unicode="m" glyph-name="m" horiz-adv-x="583" d="M540 326V0H459V327Q459 386 454 405Q441 447 396 447Q378 447 365 439T346 421T336 392T333 361T332 328V0H251V327Q251 353 251 366T247 397T238 424T219 440T189 447Q170 447 157 440T138 422T129 393T125
362T124 326V0H43V500H119V450Q163 509 226 509Q292 509 324 450Q337 467 345 476T377 497T428 509Q475 509 506 478Q529 455 534 426T540 326Z" />
<glyph unicode="n" glyph-name="n" horiz-adv-x="375" d="M331 352V0H250V326Q250 354 250 367T246 398T237 425T220 439T191 446Q172 446 159 438T139 420T129 390T125 358T124 323V0H44V500H120V454Q166 509 227 509Q257 509 277 499T308 475T324 436T330 396T331 352Z" />
<glyph unicode="o" glyph-name="o" horiz-adv-x="354" d="M319 244Q319 122 308 80Q286 -9 176 -9Q88 -9 56 49Q42 74 39 106T36 237Q36 377 47 420Q71 509 179 509Q270 509 302 444Q314 418 316 389T319 244ZM235 245Q235 346 234 372Q232 443 180 443Q165 443
155 440T138 426T128 406T123 376T121 339T120 291Q120 179 121 145Q121 127 122 118T125 95T133 73T149 59T175 53Q217 53 226 90T235 245Z" />
<glyph unicode="p" glyph-name="p" horiz-adv-x="375" d="M126 41V-159H43V500H123V452Q136 469 144 478T175 498T224 509Q290 509 320 453Q339 416 339 295Q339 153 333 104Q317 -9 219 -9Q164 -9 126 41ZM255 261Q255 370 249 396Q239 445 194 445Q134 445 129
357Q126 334 126 227Q126 116 141 86Q158 51 196 51Q247 51 251 120Q255 171 255 261Z" />
<glyph unicode="q" glyph-name="q" horiz-adv-x="375" d="M331 500V-159H252V50Q215 -9 152 -9Q109 -9 81 18T43 87Q36 126 36 242Q36 381 43 414Q53 458 84 483T155 509Q183 509 205 497T235 474T254 446V500H331ZM253 253Q253 318 249 368Q245 445 180 445Q155
445 141 431T125 406T121 377Q119 352 119 241Q119 180 120 154T126 100T145 63T181 54Q199 54 211 59T232 78T244 105T250 146T252 193T253 253Z" />
<glyph unicode="r" glyph-name="r" horiz-adv-x="250" d="M126 239V0H44V500H121V406Q131 428 138 440T162 472T202 501T256 508V425Q231 425 217 424T182 413T148 384Q136 365 131 336T126 239Z" />
<glyph unicode="s" glyph-name="s" horiz-adv-x="313" d="M161 203L100 257Q76 278 65 291T42 328T31 381Q31 451 68 480T159 509Q223 509 254 476Q283 445 283 353H212Q212 403 203 420Q190 445 159 445Q135 445 121 431T106 390Q106 367 119 350T168 304L224
256Q246 238 258 226T282 186T295 127Q295 50 241 14Q208 -9 150 -9Q58 -9 31 56Q19 84 17 173H94Q94 106 100 90Q114 55 156 55Q180 55 196 71T213 116Q213 143 202 160T161 203Z" />
<glyph unicode="t" glyph-name="t" horiz-adv-x="229" d="M221 501V440H148V122Q148 102 150 91T163 69T194 58Q206 58 222 62V-3Q200 -9 178 -9Q96 -9 76 38Q69 55 68 73T66 163V440H6V501H68V635H148V501H221Z" />
<glyph unicode="u" glyph-name="u" horiz-adv-x="375" d="M331 500V0H254V46Q210 -9 148 -9Q92 -9 67 30Q52 53 48 84T44 185V500H124V172L125 124Q125 51 183 51Q207 51 222 61T243 94T250 131T252 173V500H331Z" />
<glyph unicode="v" glyph-name="v" horiz-adv-x="313" d="M312 500L198 0H107L0 500H87L153 91L226 500H312Z" />
<glyph unicode="w" glyph-name="w" horiz-adv-x="521" d="M521 500L423 0H327L259 421L190 0H93L0 500H87L140 72L205 500H313L378 78L437 500H521Z" />
<glyph unicode="x" glyph-name="x" horiz-adv-x="333" d="M208 268L333 0H242L163 198L88 0H0L120 268L16 500H109L163 336L223 500H312L208 268Z" />
<glyph unicode="y" glyph-name="y" horiz-adv-x="333" d="M235 501H320L234 65Q208 -67 192 -97Q172 -137 143 -150T72 -163H20V-94Q40 -94 56 -94T86 -91T109 -83T124 -66T129 -36Q129 -15 119 25L6 501H92L171 98L235 501Z" />
<glyph unicode="z" glyph-name="z" horiz-adv-x="292" d="M281 66V0H9V66L197 432H34V500H281V432L94 66H281Z" />
<glyph unicode="{" glyph-name="braceleft" horiz-adv-x="354" d="M55 239V308Q99 310 118 338T138 444V524Q138 559 139 579T149 626T173 671Q191 692 219 703T268 715T326 718V651Q304 649 289 646T263 638T245 621T234 600T229 569T227 531T226 481Q226 445
226 427T223 383T215 343T200 314T176 290T140 276V271Q161 266 176 258T200 233T215 204T223 163T225 119T226 66Q226 26 226 9T230 -32T238 -64T255 -84T284 -98T326 -104V-171Q289 -170 269 -169T220 -156T173 -124Q157 -105 149 -78T139 -32T138 20V94Q138
173 121 204T55 239Z" />
<glyph unicode="|" glyph-name="bar" horiz-adv-x="229" d="M154 750V-250H74V750H154Z" />
<glyph unicode="}" glyph-name="braceright" horiz-adv-x="354" d="M299 308V239Q255 236 236 208T216 102V23Q216 -12 215 -32T205 -79T181 -124Q162 -145 134 -156T85 -168T28 -171V-104Q50 -102 65 -99T91 -91T109 -74T120 -53T125 -22T127 16T128 66Q128 101
128 119T131 164T139 204T154 233T178 257T214 271V276Q193 281 178 289T154 314T139 343T131 383T129 427T128 481Q128 521 128 538T124 579T116 611T99 631T70 645T28 651V718Q65 717 85 716T134 703T181 671Q197 652 205 625T215 579T216 527V453Q216 374 233
343T299 308Z" />
<glyph unicode="~" glyph-name="asciitilde" horiz-adv-x="729" d="M567 366L605 294Q543 215 468 215Q434 215 369 246Q290 285 259 285Q232 285 216 273T164 218L124 289Q136 305 145 316T171 342T210 365T257 373Q295 373 368 340Q444 304 470 304Q518 304 567 366Z" />
</font>
</defs>
</svg>
