<?xml version="1.0" standalone="no"?> <!DOCTYPE svg PUBLIC "-//W3C//DTD SVG 1.0//EN" "http://www.w3.org/TR/2001/REC-SVG-20010904/DTD/svg10.dtd" > <svg xmlns="http://www.w3.org/2000/svg" width="100%" height="100%">
<defs >
<font id="bertholdakzidenzgrotesklightcondensed" horiz-adv-x="274" ><font-face
    font-family="Berthold Akzidenz-Grotesk"
    units-per-em="1000"
    panose-1="2 0 5 6 2 0 0 2 0 4"
    ascent="706"
    descent="-163"
    alphabetic="0" />
<missing-glyph horiz-adv-x="229" />
<glyph unicode=" " glyph-name="space" horiz-adv-x="229" />
<glyph unicode="!" glyph-name="exclam" horiz-adv-x="187" d="M91 330V706H140V322L128 186H101L91 330ZM92 0V90H137V0H92Z" />
<glyph unicode="&quot;" glyph-name="quotedbl" horiz-adv-x="396" d="M320 706L288 452H271L243 693Q243 696 243 700T242 707Q242 729 254 739T282 749Q299 749 311 738T320 706ZM153 706L121 452H104L76 693Q76 696 76 700T75 707Q75 729 87 739T115 749Q132
749 144 738T153 706Z" />
<glyph unicode="#" glyph-name="numbersign" horiz-adv-x="583" d="M556 304V263H379L341 0H299L337 263H220L182 0H140L177 263H6V304H183L198 415H29V456H204L238 706H281L248 456H364L400 706H440L407 456H577V415H401L385 304H556ZM226 304H342L358 415H242L226 304Z" />
<glyph unicode="$" glyph-name="dollar" horiz-adv-x="375" d="M176 709H205V673Q237 669 258 657T290 631T306 593T313 551T314 502H267Q267 531 267 545T262 578T250 607T227 622T189 629Q163 629 146 620T123 594T116 567T114 539Q114 485 132 458T240 345Q294
293 313 254T333 163Q333 19 206 0V-69H176V-1Q100 11 69 64Q54 90 51 121T47 213H92Q92 129 100 107Q110 75 136 60T190 44Q218 44 241 58Q286 86 286 159Q286 214 264 246T167 347Q103 405 85 443T66 538Q66 571 74 596T92 634T119 656T147 668T176 673V709Z"
/>
<glyph unicode="%" glyph-name="percent" horiz-adv-x="583" d="M20 367V599Q20 614 20 623T26 650T40 679T69 699T116 708Q141 708 158 700T185 682T198 654T203 625T204 594V366Q204 260 113 260Q20 260 20 367ZM167 366V598Q167 611 167 618T164 637T156 654T140
664T113 669Q94 669 82 663T65 645T59 626T58 606V371Q58 297 113 297Q167 297 167 366ZM91 -58L457 785Q472 780 483 773L116 -70Q107 -65 91 -58ZM374 103V334Q374 349 374 358T380 385T394 414T423 434T470 443Q495 443 512 435T539 417T552 389T557 360T558
329V101Q558 -5 467 -5Q374 -5 374 103ZM521 101V334Q521 347 521 354T518 372T510 389T494 399T467 404Q448 404 436 398T419 380T413 361T412 341V106Q412 32 467 32Q521 32 521 101Z" />
<glyph unicode="&amp;" glyph-name="ampersand" horiz-adv-x="437" d="M419 39V-2Q368 -2 345 4T297 30Q248 -9 181 -9Q112 -9 72 29T32 132Q32 171 47 209T79 270T127 331Q93 431 93 491Q93 544 117 577T189 610Q226 610 250 587T274 523Q274 493 259 459T228
399T176 328Q231 207 300 94Q333 138 341 195T348 342H392Q392 232 379 172T328 63Q358 38 398 38Q412 38 419 39ZM159 374Q231 471 231 521Q231 543 220 557T186 572Q168 572 156 562T140 534T135 507T134 489Q134 433 159 374ZM146 285Q76 199 76 138Q76 128
78 116T90 82T123 46T185 32Q234 32 269 60Q197 172 146 285Z" />
<glyph unicode="&apos;" glyph-name="quotesingle" horiz-adv-x="208" d="M143 706L111 452H94L66 693Q66 696 66 700T65 707Q65 729 79 739T106 749Q122 749 134 738T143 706Z" />
<glyph unicode="(" glyph-name="parenleft" horiz-adv-x="229" d="M192 -82V-139Q123 -66 86 19Q29 153 29 291Q29 403 69 508Q88 557 111 597T149 656T191 707V651Q133 572 103 472Q74 379 74 285Q74 195 103 92Q130 0 192 -82Z" />
<glyph unicode=")" glyph-name="parenright" horiz-adv-x="229" d="M37 650V708Q106 635 143 549Q200 415 200 278Q200 168 160 60Q142 11 119 -28T81 -88T38 -138V-82Q96 -3 126 97Q155 189 155 283Q155 374 126 476Q99 571 37 650Z" />
<glyph unicode="*" glyph-name="asterisk" horiz-adv-x="271" d="M117 706H153V621L235 648L246 617L163 586L213 517L185 496L134 565L89 496L59 517L107 588L26 611L36 644L117 621V706Z" />
<glyph unicode="+" glyph-name="plus" horiz-adv-x="500" d="M468 313V269H273V72H229V269H31V313H229V508H273V313H468Z" />
<glyph unicode="," glyph-name="comma" horiz-adv-x="146" d="M51 0V91H96V0Q96 -43 85 -60T50 -90V-68Q65 -58 70 -45T75 0H51Z" />
<glyph unicode="-" glyph-name="hyphen" horiz-adv-x="250" d="M37 314H214V271H37V314Z" />
<glyph unicode="." glyph-name="period" horiz-adv-x="146" d="M52 90H96V0H52V90Z" />
<glyph unicode="/" glyph-name="slash" horiz-adv-x="313" d="M34 0L234 706H279L80 0H34Z" />
<glyph unicode="0" glyph-name="zero" horiz-adv-x="354" d="M36 159V552Q36 709 183 709Q236 709 273 682Q296 664 308 635T320 541V151Q320 104 304 71T263 24T218 5T178 0Q125 0 89 27Q36 66 36 159ZM274 150V559Q274 593 266 615T242 647T212 660T181 664Q153
664 133 655T104 635T89 606T83 578T82 552V169Q82 146 83 133T90 102T110 71Q137 44 177 44T245 71T274 150Z" />
<glyph unicode="1" glyph-name="one" horiz-adv-x="354" d="M50 564V603Q144 617 171 702H216V0H166V615Q133 587 109 578T50 564Z" />
<glyph unicode="2" glyph-name="two" horiz-adv-x="354" d="M54 478V545Q54 564 54 575T58 609T69 646T90 676T125 699T177 707Q221 707 253 683Q279 663 289 631T300 544Q300 429 280 371T173 192Q125 125 113 104T83 42H304V0H41V51Q41 80 148 232Q217 329 236
385T255 528Q255 556 254 572T246 614T222 652T178 665Q150 665 132 653T108 615T100 573T98 526V478H54Z" />
<glyph unicode="3" glyph-name="three" horiz-adv-x="354" d="M54 498V575Q54 706 175 706Q295 706 295 576V508Q295 476 286 452T259 414T228 393T194 379Q214 374 225 371T256 357T286 331T305 289T314 226V151Q314 135 313 123T305 84T284 39T241 7T172 -8Q96
-8 61 49Q46 73 42 103T35 215H79Q81 138 85 112T102 67Q126 34 176 34Q215 34 242 61T270 145Q270 256 262 281Q255 304 239 319T198 342T158 351T118 355V401Q180 401 215 429T250 504V563Q250 584 248 598T239 630T215 655T172 664T130 655T107 628T100 600T98
573V498H54Z" />
<glyph unicode="4" glyph-name="four" horiz-adv-x="354" d="M19 271L201 701H263V267H347V225H263V0H218V225H19V271ZM217 267V636L64 267H217Z" />
<glyph unicode="5" glyph-name="five" horiz-adv-x="354" d="M60 703H292V660H105V450Q148 477 185 477Q302 477 302 317V185Q302 152 301 134T294 86T275 39T237 9T174 -4Q138 -4 112 8T74 35T55 75T47 114T46 151V222H90V167Q90 142 90 129T95 96T107 66T131
47T170 39Q195 39 212 47T238 67T251 101T256 139T257 185V331Q257 434 181 434Q97 434 97 337H60V703Z" />
<glyph unicode="6" glyph-name="six" horiz-adv-x="354" d="M48 161V564Q48 639 87 675Q127 711 192 711Q263 711 294 670Q312 648 316 618T320 519L275 518Q275 550 275 565T270 604T257 639T232 658T190 667Q153 667 128 647Q94 620 94 556V386Q145 429 200
429Q267 429 299 379Q319 347 319 256V126Q319 86 304 59T266 19T222 1T183 -4Q127 -4 91 26Q66 47 57 77T48 161ZM274 138V284Q274 385 197 385Q170 385 145 372Q93 345 93 270V166Q93 148 93 137T98 105T112 73T139 51T182 41Q218 41 242 60Q274 84 274 138Z"
/>
<glyph unicode="7" glyph-name="seven" horiz-adv-x="354" d="M48 659V702H318V659Q246 497 212 369Q168 198 168 80V0H119V47Q119 186 158 345Q175 415 195 474T228 564T271 659H48Z" />
<glyph unicode="8" glyph-name="eight" horiz-adv-x="354" d="M51 497V595Q51 608 52 617T59 646T78 679T115 702T177 713Q221 713 249 701T289 665T303 625T306 583V501Q306 465 295 443T271 413T233 395Q277 379 296 351T315 257V128Q315 116 314 106T306 72T286
34T246 6T180 -7Q119 -7 80 27Q41 63 41 148V269Q41 302 48 325T69 363T93 382T119 395Q79 413 65 435T51 497ZM260 506V576Q260 592 260 601T255 625T242 649T216 664T175 671Q97 671 97 592V497Q97 469 107 451T134 427T159 419T177 417Q187 417 197 419T223
428T250 456T260 506ZM269 141V264Q269 372 180 372Q87 372 87 268V157Q87 140 87 129T93 98T107 67T134 46T179 36Q269 36 269 141Z" />
<glyph unicode="9" glyph-name="nine" horiz-adv-x="354" d="M34 416V540Q34 570 35 586T42 625T61 665Q98 713 173 713Q238 713 275 676Q291 660 299 636T308 595T309 547V147Q309 132 308 120T300 81T279 38T236 7T167 -7Q82 -7 50 51Q38 73 36 98T33 190H79V136Q79
38 165 38Q262 38 262 143V323Q217 280 157 280Q101 280 67 312Q34 344 34 416ZM263 455V549Q263 568 262 580T256 611T242 641T215 660T171 668Q136 668 109 649T81 577V406Q81 367 101 346T155 324Q196 324 225 347Q249 366 256 391T263 455Z" />
<glyph unicode=":" glyph-name="colon" horiz-adv-x="187" d="M92 455H136V365H92V455ZM92 90H136V0H92V90Z" />
<glyph unicode=";" glyph-name="semicolon" horiz-adv-x="187" d="M91 455H137V364H91V455ZM91 0V91H136V0Q136 -43 125 -60T91 -90L90 -68Q105 -58 110 -45T115 0H91Z" />
<glyph unicode="&lt;" glyph-name="less" horiz-adv-x="500" d="M500 117V68L0 325V384L500 638V588L44 355L500 117Z" />
<glyph unicode="=" glyph-name="equal" horiz-adv-x="500" d="M500 227V183H0V227H500ZM500 403V359H0V403H500Z" />
<glyph unicode="&gt;" glyph-name="greater" horiz-adv-x="500" d="M500 325L0 68V117L456 355L0 588V638L500 384V325Z" />
<glyph unicode="?" glyph-name="question" horiz-adv-x="354" d="M118 482H72Q72 496 72 511T71 535T70 552Q70 718 194 718Q273 718 302 648Q318 609 318 517Q318 475 312 446T296 402T263 350Q231 303 224 289T217 252V174H170V256Q170 285 177 301T214 362Q251
415 261 439T271 508Q271 548 269 572T260 623T236 663T192 676Q117 676 117 543Q117 534 117 514T118 482ZM170 90H217V0H170V90Z" />
<glyph unicode="@" glyph-name="at" horiz-adv-x="896" d="M792 59L815 33Q741 -39 661 -75Q559 -123 452 -123Q377 -123 309 -101T187 -36T101 76T69 232Q69 355 126 464T291 642T530 712Q670 712 748 633T827 425Q827 338 795 256T710 123T599 72Q576 72 557
83Q540 94 532 111T523 139T523 171Q510 153 500 142T469 112T423 84T369 74Q318 74 284 109Q242 151 242 233Q242 340 304 427T450 514Q536 514 571 412L589 491H642L610 346Q580 208 580 169Q580 114 620 114Q672 114 730 209T788 425Q788 543 717 609T522 675Q354
675 231 543T108 232Q108 80 207 -3T451 -86Q544 -86 628 -50Q712 -16 792 59ZM553 347Q553 384 543 410T516 447T485 463T458 468Q389 468 346 391T303 233Q303 182 328 152T395 121Q461 121 507 193Q527 222 540 267T553 347Z" />
<glyph unicode="A" glyph-name="A" horiz-adv-x="375" d="M153 710H221L349 0H297L261 215H113L76 0H24L153 710ZM252 261L197 588Q196 592 195 603T191 629T187 655L184 626Q183 621 182 610T179 594L121 261H252Z" />
<glyph unicode="B" glyph-name="B" horiz-adv-x="375" d="M60 0V707H187Q206 707 217 706T248 699T279 682T300 648T309 591V490Q309 433 288 413T225 383Q289 374 311 346T333 252V132Q333 74 305 37T200 0H60ZM170 664H108V402H156Q192 402 214 411T246 437T257
467T260 501V586Q260 632 241 648T170 664ZM160 359H109V43H192Q224 43 243 50T271 75T282 109T284 153V253Q284 275 281 291T266 324T228 350T160 359Z" />
<glyph unicode="C" glyph-name="C" horiz-adv-x="375" d="M52 160V543Q52 577 53 594T63 633T89 673Q125 713 192 713Q238 713 271 693Q326 660 326 577V478H277Q277 564 276 588T265 629Q246 668 197 668Q100 668 100 553V209Q100 173 100 155T106 110T121 70T150
46T198 35Q284 35 284 134V243H334V134Q334 -11 190 -11Q122 -11 83 35Q52 73 52 160Z" />
<glyph unicode="D" glyph-name="D" horiz-adv-x="396" d="M60 0V707H120Q191 707 234 691T302 637T334 549T342 417V260Q342 157 327 114Q312 68 271 34T153 0H60ZM294 256V417Q294 528 278 577Q270 601 255 618T226 643T189 655T151 660T109 661V44Q164 44 189
48T238 69Q264 88 279 126T294 256Z" />
<glyph unicode="E" glyph-name="E" horiz-adv-x="333" d="M59 0V706H309V662H108V390H273V347H107V44H308V0H59Z" />
<glyph unicode="F" glyph-name="F" horiz-adv-x="313" d="M58 0V706H308V662H107V390H284V347H107V0H58Z" />
<glyph unicode="G" glyph-name="G" horiz-adv-x="396" d="M55 182V553Q55 574 56 588T64 628T86 671T130 701T202 714Q252 714 287 692Q339 658 339 577V479H291V552Q291 578 289 592T280 628T252 661T199 672Q148 672 123 638Q109 619 106 599T103 530V196Q103
118 113 92Q134 33 194 33Q231 33 262 68T294 166V279H190V322H342V0H305V56Q263 -10 188 -10Q116 -10 82 44Q55 84 55 182Z" />
<glyph unicode="H" glyph-name="H" horiz-adv-x="396" d="M58 706H107V392H289V706H338V0H289V349H107V0H58V706Z" />
<glyph unicode="I" glyph-name="I" horiz-adv-x="167" d="M58 706H109V0H58V706Z" />
<glyph unicode="J" glyph-name="J" horiz-adv-x="333" d="M228 706H277V129Q277 111 274 95T261 51T223 7T153 -10Q137 -10 121 -5T86 12T54 52T42 121V222H90V131Q90 90 98 73Q114 34 163 34Q168 34 173 35T189 41T208 54T222 79T228 121V706Z" />
<glyph unicode="K" glyph-name="K" horiz-adv-x="354" d="M107 360L283 706H338L188 425L340 0H288L158 366L106 268V0H58V706H107V360Z" />
<glyph unicode="L" glyph-name="L" horiz-adv-x="313" d="M58 0V706H107V44H291V0H58Z" />
<glyph unicode="M" glyph-name="M" horiz-adv-x="500" d="M279 262L366 706H437L444 0H398L396 530Q396 598 399 663L272 0H226L99 666Q102 594 102 438V0H54L60 706H132L211 300Q236 172 250 75Q263 181 279 262Z" />
<glyph unicode="N" glyph-name="N" horiz-adv-x="396" d="M289 706H337V0H262L95 675Q99 567 99 502L101 0H55V706H127L298 21Q293 113 293 191L289 706Z" />
<glyph unicode="O" glyph-name="O" horiz-adv-x="396" d="M55 151V549Q55 623 80 659Q118 714 201 714Q280 714 315 662Q340 625 340 534V145Q340 82 317 48Q280 -9 196 -9Q156 -9 128 4T86 33T65 76T56 117T55 151ZM293 163V507Q293 615 264 645Q239 670 198
670Q156 670 131 645Q102 617 102 559V170Q102 119 110 94T140 52Q165 35 198 35Q226 35 245 47Q274 63 283 91T293 163Z" />
<glyph unicode="P" glyph-name="P" horiz-adv-x="375" d="M57 707H167Q222 707 254 700T308 665Q333 633 333 549V469Q333 444 332 429T320 391T290 352Q251 321 179 321H107V-1H57V707ZM181 665H106V363H185Q219 363 240 372T271 399T282 432T285 469V530Q285
614 267 639T181 665Z" />
<glyph unicode="Q" glyph-name="Q" horiz-adv-x="396" d="M54 229V548Q54 716 201 716Q340 716 340 560V169Q340 104 325 73T278 17L370 -67L340 -98L234 -3Q209 -8 194 -8Q121 -8 85 40Q64 69 59 108T54 229ZM292 168V561Q292 611 269 641T198 671Q102 671 102
543V207Q102 182 102 168T105 131T114 93T129 65T155 43T194 36Q228 36 250 52T280 95T290 137T292 168Z" />
<glyph unicode="R" glyph-name="R" horiz-adv-x="375" d="M59 0V706H195Q221 706 240 703T284 688T321 651T335 583V473Q335 367 236 348L366 0H314L185 344H108V0H59ZM200 664H108V386H197Q283 386 283 461V570Q283 626 262 645T200 664Z" />
<glyph unicode="S" glyph-name="S" horiz-adv-x="375" d="M91 231V175Q91 142 92 128T97 96T112 66Q138 33 194 33Q244 33 264 61T285 148T266 240T182 338Q133 387 113 411T76 474T59 560Q59 582 61 599T70 640T91 678T131 705T192 716Q224 716 247 709T285 688T307
661T319 625T323 589T324 553V502H276V565Q276 588 275 601T266 634T241 664T193 674Q147 674 128 648T108 568Q108 515 129 478T228 362Q272 317 290 295T321 238T334 157Q334 132 332 113T322 69T300 28T257 1T190 -11Q124 -11 83 24T42 132V231H91Z" />
<glyph unicode="T" glyph-name="T" horiz-adv-x="313" d="M7 707H305V662H179V0H130V662H7V707Z" />
<glyph unicode="U" glyph-name="U" horiz-adv-x="396" d="M57 167V707H105V159Q105 138 105 127T111 95T125 63T153 43T199 34Q249 34 272 68Q283 83 286 105T289 188V707H338V141Q338 126 337 114T329 76T308 33T265 2T196 -12Q142 -12 106 15Q83 32 72 60T59
108T57 167Z" />
<glyph unicode="V" glyph-name="V" horiz-adv-x="354" d="M27 706H78L147 277Q164 166 173 85Q185 175 204 288L276 706H326L198 0H147L27 706Z" />
<glyph unicode="W" glyph-name="W" horiz-adv-x="562" d="M21 706H71L126 367Q155 191 165 76Q173 160 191 278L257 706H309L377 273Q393 163 402 82Q416 220 441 373L493 706H542L427 0H374L308 442Q290 566 283 628Q271 519 242 331Q202 73 192 0H141L21 706Z" />
<glyph unicode="X" glyph-name="X" horiz-adv-x="354" d="M152 389L53 706H104L164 501Q175 461 180 434Q186 461 205 522L262 706H313L206 388L330 0H279L199 260Q190 289 178 342Q171 308 158 268L74 0H24L152 389Z" />
<glyph unicode="Y" glyph-name="Y" horiz-adv-x="354" d="M14 706H66L178 374L291 706H345L201 312V0H153V312L14 706Z" />
<glyph unicode="Z" glyph-name="Z" horiz-adv-x="354" d="M69 663V706H318V673L82 44H317V0H27V32L261 663H69Z" />
<glyph unicode="[" glyph-name="bracketleft" horiz-adv-x="229" d="M53 707H195V670H96V-103H195V-141H53V707Z" />
<glyph unicode="\" glyph-name="backslash" horiz-adv-x="313" d="M234 0L34 706H78L280 0H234Z" />
<glyph unicode="]" glyph-name="bracketright" horiz-adv-x="229" d="M32 670V707H176V-141H36V-103H133V670H32Z" />
<glyph unicode="^" glyph-name="asciicircum" horiz-adv-x="729" d="M392 707L560 363H504L366 651L225 363H170L342 707H392Z" />
<glyph unicode="_" glyph-name="underscore" horiz-adv-x="500" d="M510 -75V-125H-10V-75H510Z" />
<glyph unicode="`" glyph-name="grave" horiz-adv-x="229" d="M22 678H119L206 569H173L22 678Z" />
<glyph unicode="a" glyph-name="a" horiz-adv-x="313" d="M92 348H49Q49 379 50 395T56 436T73 473T108 496T164 506Q266 506 266 396V58Q266 40 296 40V0Q261 0 246 7T224 39Q174 0 127 0Q77 0 53 33T28 118Q28 152 37 178T64 223T98 252T139 276Q200 308 223
326V384Q223 411 220 426T202 454T159 466Q135 466 121 458T100 431T93 396T92 348ZM224 88V279Q209 269 164 244Q139 230 127 222T100 198T78 164T71 117Q71 84 87 62T136 40Q156 40 174 48T201 65T224 88Z" />
<glyph unicode="b" glyph-name="b" horiz-adv-x="333" d="M52 706H94V460Q105 474 113 482T141 499T186 509Q284 509 284 375V117Q284 63 254 30T178 -3Q127 -3 96 41V0H52V706ZM242 132V377Q242 469 175 469Q142 469 119 447T95 378V136Q95 87 120 61T175 35Q200
35 217 52Q242 76 242 132Z" />
<glyph unicode="c" glyph-name="c" horiz-adv-x="313" d="M40 144V376Q40 503 155 503Q271 503 271 368V324H229Q229 394 223 414Q208 466 157 466Q83 466 83 373V157Q83 135 83 124T88 93T100 63T123 45T162 37Q232 37 232 119V192H276V127Q276 -3 154 -3Q91
-3 63 39Q40 71 40 144Z" />
<glyph unicode="d" glyph-name="d" horiz-adv-x="333" d="M238 706H280V0H241V53Q210 -4 148 -4Q48 -4 48 123V375Q48 415 59 443T88 482T120 498T149 503Q173 503 192 494T219 477T238 455V706ZM238 107V374Q238 385 233 403T209 442T160 463Q151 463 143 461T121
451T99 424T90 375V131Q90 34 159 34Q196 34 217 61T238 107Z" />
<glyph unicode="e" glyph-name="e" horiz-adv-x="313" d="M43 122V385Q43 443 72 474T156 506Q184 506 205 499T238 478T258 451T269 416T272 382T273 348V247H85V123Q85 38 159 38Q209 38 224 80Q231 97 231 174H273V118Q273 61 243 30T157 -1Q108 -1 78 27Q43
57 43 122ZM230 282V375Q230 468 158 468Q85 468 85 371V282H230Z" />
<glyph unicode="f" glyph-name="f" horiz-adv-x="187" d="M77 504V605Q77 706 166 706Q174 706 192 704V665Q185 666 175 666Q118 666 118 603V504H180V463H116V0H74V463H17V504H77Z" />
<glyph unicode="g" glyph-name="g" horiz-adv-x="333" d="M51 140V394Q51 508 154 508Q203 508 238 462V505H281V-23Q281 -96 242 -129Q210 -158 157 -158Q114 -158 83 -137Q68 -126 60 -111T50 -83T47 -51H89Q90 -63 91 -70T98 -90T119 -110T158 -117Q166 -117
175 -115T201 -107T227 -83T238 -38V46Q198 2 150 2Q122 2 102 13T73 37T58 73T52 108T51 140ZM238 118V400Q238 418 218 444T162 470Q138 470 123 460T102 432T95 401T93 371V138Q93 120 94 109T101 79T121 52T159 42Q197 42 217 70T238 118Z" />
<glyph unicode="h" glyph-name="h" horiz-adv-x="333" d="M54 707H97V464Q139 509 188 509Q224 509 251 489Q286 461 286 399V0H243V373Q243 387 243 396T239 420T229 444T209 460T177 467Q145 467 120 444Q105 429 97 400V0H54V707Z" />
<glyph unicode="i" glyph-name="i" horiz-adv-x="146" d="M51 562V640H93V562H51ZM51 0V504H93V0H51Z" />
<glyph unicode="j" glyph-name="j" horiz-adv-x="167" d="M70 639H112V561H70V639ZM70 503H112V-31Q112 -51 110 -64T100 -100T68 -139T7 -163V-120Q29 -115 43 -104T62 -75T69 -45T70 -8V503Z" />
<glyph unicode="k" glyph-name="k" horiz-adv-x="313" d="M52 706H94V267L239 504H288L171 311L300 0H253L143 266L95 187V0H52V706Z" />
<glyph unicode="l" glyph-name="l" horiz-adv-x="146" d="M52 706H95V0H52V706Z" />
<glyph unicode="m" glyph-name="m" horiz-adv-x="521" d="M96 503V461Q136 509 190 509Q248 509 275 449Q317 509 377 509Q408 509 433 492T466 442Q471 423 471 356V0H428V360Q428 414 424 429Q413 470 366 470Q338 470 317 454T290 424T283 407V0H240V397Q240
424 231 441Q214 470 176 470Q151 470 131 457T103 431T95 415V0H52V503H96Z" />
<glyph unicode="n" glyph-name="n" horiz-adv-x="333" d="M97 504V455Q111 480 132 493Q158 509 190 509Q219 509 242 496Q285 471 285 404V0H243V403Q243 439 225 455T181 472Q142 472 115 442Q104 429 97 409V0H55V504H97Z" />
<glyph unicode="o" glyph-name="o" horiz-adv-x="313" d="M39 121V385Q39 421 51 446T82 484T120 501T159 506Q274 506 274 382V143Q274 77 252 45Q220 -2 155 -2Q117 -2 88 15Q39 42 39 121ZM231 126V377Q231 464 160 464Q133 464 116 454T92 426T84 396T82 365V122Q82
39 154 39Q231 39 231 126Z" />
<glyph unicode="p" glyph-name="p" horiz-adv-x="333" d="M97 503V459Q133 508 190 508Q225 508 246 489T277 442Q285 417 285 358V114Q285 54 254 26T183 -2Q132 -2 97 41V-163H54V503H97ZM242 135V391Q242 436 222 453T177 470Q141 470 119 445T97 404V94Q97
88 104 76T130 50T175 37Q199 37 213 46T233 74T240 104T242 135Z" />
<glyph unicode="q" glyph-name="q" horiz-adv-x="333" d="M49 125V372Q49 438 73 471Q102 509 152 509Q207 509 236 463V504H278V-163H236V47Q205 -3 145 -3Q109 -3 84 19Q49 51 49 125ZM236 125V365Q236 412 215 440T158 469Q129 469 111 446Q91 424 91 368V164Q91
100 97 83Q111 35 157 35Q187 35 211 60Q232 83 236 125Z" />
<glyph unicode="r" glyph-name="r" horiz-adv-x="208" d="M94 503V415Q103 434 111 447T142 479T199 516V459Q175 452 161 445T130 416T95 355V0H53V503H94Z" />
<glyph unicode="s" glyph-name="s" horiz-adv-x="292" d="M70 177V133Q70 116 71 105T79 76T103 49T148 39Q222 39 222 123Q222 161 209 180T138 247Q103 276 88 292T60 336T47 397Q47 505 153 505Q183 505 204 496T235 475T251 444T257 413T258 385V350H215Q215
379 215 392T211 423T202 447T183 459T153 465Q131 465 117 459T98 440T91 420T90 400Q90 364 105 341T189 261Q218 237 231 224T254 185T265 124Q265 55 229 24Q198 -1 148 -1Q85 -1 55 33Q36 53 32 81T28 177H70Z" />
<glyph unicode="t" glyph-name="t" horiz-adv-x="187" d="M61 504V632H105V504H181V463H105V86Q105 73 105 67T109 52T121 41T142 38Q159 38 181 40V1Q158 -2 136 -2Q94 -2 78 12T62 57V463H8V504H61Z" />
<glyph unicode="u" glyph-name="u" horiz-adv-x="333" d="M50 116V504H92V126Q92 34 158 34Q181 34 199 47T223 71T236 99V504H279V1H236V48Q198 -2 145 -2Q114 -2 90 14Q50 41 50 116Z" />
<glyph unicode="v" glyph-name="v" horiz-adv-x="271" d="M208 503H254L158 0H109L14 503H58L117 172Q128 110 134 64Q139 106 147 153L208 503Z" />
<glyph unicode="w" glyph-name="w" horiz-adv-x="437" d="M14 503H57L98 253Q117 145 127 67Q134 121 146 185L202 503H237L306 72Q307 81 309 97T314 127T318 153Q319 162 328 212T339 270L381 503H425L328 0H285L233 321Q226 364 220 420Q213 369 207 337L147
0H103L14 503Z" />
<glyph unicode="x" glyph-name="x" horiz-adv-x="313" d="M22 503H67L124 355L134 330Q143 305 145 300Q154 327 164 352L225 503H271L170 267L277 0H230L165 170Q153 201 146 230Q141 214 123 166L59 0H12L121 262L22 503Z" />
<glyph unicode="y" glyph-name="y" horiz-adv-x="292" d="M124 4L15 504H58L146 86L235 504H280L151 -56Q142 -93 129 -115T94 -148T56 -160T9 -163V-121Q25 -123 31 -123Q98 -123 112 -54L124 4Z" />
<glyph unicode="z" glyph-name="z" horiz-adv-x="292" d="M50 461V503H259V469L85 42H259V0H36V37L208 461H50Z" />
<glyph unicode="{" glyph-name="braceleft" horiz-adv-x="354" d="M100 267V300Q138 305 151 335T165 441V521Q165 550 167 572T178 619T200 661T239 690T299 706V675Q247 663 227 632T207 526Q207 391 198 347T146 285V282Q187 265 197 225T207 82Q207 39 207
20T212 -26T226 -65T254 -90T299 -108V-139Q262 -136 236 -122T197 -90T176 -46T167 2T165 52V117Q165 196 153 228T100 267Z" />
<glyph unicode="|" glyph-name="bar" horiz-adv-x="229" d="M136 750V-250H92V750H136Z" />
<glyph unicode="}" glyph-name="braceright" horiz-adv-x="354" d="M254 300V267Q216 261 203 231T189 126V46Q189 17 187 -5T176 -52T154 -94T115 -123T55 -139V-108Q107 -96 127 -65T147 41Q147 176 156 220T208 282V285Q167 302 157 342T147 485Q147 528 147
547T142 593T128 632T100 657T55 675V706Q92 703 118 689T157 657T178 613T187 565T189 515V450Q189 371 201 339T254 300Z" />
<glyph unicode="~" glyph-name="asciitilde" horiz-adv-x="729" d="M560 346L585 307Q529 232 467 232Q436 232 371 264Q289 303 257 303Q238 303 222 294T196 274T169 240L145 278Q193 353 258 353Q282 353 302 346T374 316Q446 282 466 282Q487 282 506 293T535
315T560 346Z" />
</font>
</defs>
</svg>
